<svg width="24" height="24" viewBox="0 0 24 24" fill="none" xmlns="http://www.w3.org/2000/svg">
<path d="M5.34476 14.7971C5.23552 14.9106 5.14881 15.0457 5.08964 15.1946C5.03047 15.3434 5 15.5031 5 15.6643C5 15.8255 5.03047 15.9852 5.08964 16.134C5.14881 16.2829 5.23552 16.418 5.34476 16.5315L11.1725 22.6387C11.2808 22.7532 11.4097 22.8441 11.5518 22.9061C11.6938 22.9681 11.8461 23 12 23C12.1539 23 12.3062 22.9681 12.4482 22.9061C12.5903 22.8441 12.7192 22.7532 12.8275 22.6387L18.6552 16.5315C18.7645 16.418 18.8512 16.2829 18.9104 16.134C18.9695 15.9852 19 15.8255 19 15.6643C19 15.5031 18.9695 15.3434 18.9104 15.1946C18.8512 15.0457 18.7645 14.9106 18.6552 14.7971C18.5469 14.6826 18.418 14.5917 18.2759 14.5297C18.1339 14.4677 17.9816 14.4358 17.8277 14.4358C17.6738 14.4358 17.5215 14.4677 17.3795 14.5297C17.2374 14.5917 17.1085 14.6826 17.0002 14.7971L12 20.0493L6.99983 14.7971C6.89148 14.6826 6.76257 14.5917 6.62054 14.5297C6.47851 14.4677 6.32616 14.4358 6.1723 14.4358C6.01843 14.4358 5.86609 14.4677 5.72406 14.5297C5.58203 14.5917 5.45312 14.6826 5.34476 14.7971ZM11.1725 1.3613L5.34476 7.46848C5.23609 7.58236 5.14989 7.71756 5.09107 7.86636C5.03226 8.01516 5.00199 8.17464 5.00199 8.33569C5.00199 8.66096 5.12529 8.97291 5.34476 9.20291C5.45344 9.3168 5.58245 9.40714 5.72444 9.46877C5.86643 9.53041 6.01861 9.56213 6.1723 9.56213C6.48268 9.56213 6.78036 9.43291 6.99983 9.20291L12 3.95074L17.0002 9.20291C17.1085 9.3174 17.2374 9.40826 17.3795 9.47027C17.5215 9.53229 17.6738 9.56421 17.8277 9.56421C17.9816 9.56421 18.1339 9.53229 18.2759 9.47027C18.418 9.40826 18.5469 9.3174 18.6552 9.20291C18.7645 9.08937 18.8512 8.95427 18.9104 8.80543C18.9695 8.65659 19 8.49694 19 8.33569C19 8.17445 18.9695 8.0148 18.9104 7.86596C18.8512 7.71712 18.7645 7.58202 18.6552 7.46848L12.8275 1.3613C12.7192 1.24682 12.5903 1.15595 12.4482 1.09394C12.3062 1.03192 12.1539 1 12 1C11.8461 1 11.6938 1.03192 11.5518 1.09394C11.4097 1.15595 11.2808 1.24682 11.1725 1.3613Z" fill="white"/>
</svg>
